<?xml version="1.0" encoding="utf-8"?>
<!-- Generator: Adobe Illustrator 24.2.0, SVG Export Plug-In . SVG Version: 6.00 Build 0)  -->
<svg version="1.1" id="Calque_1" xmlns="http://www.w3.org/2000/svg" xmlns:xlink="http://www.w3.org/1999/xlink" x="0px" y="0px"
	 viewBox="0 0 229.02 122.14" style="enable-background:new 0 0 229.02 122.14;" xml:space="preserve">
<style type="text/css">
	.st0{fill:#FFFFFF;}
</style>
<g>
	<path class="st0" d="M31.76,83.68c2.96-3.54,6-8.63,6.42-9.05c0.42-0.42,1.47-1.37-0.32-4c-1.79-2.63-10.95-17.68-14-21.37
		c-3.05-3.68-12.32-18.21-12.63-18.84c-0.32-0.63,0.74-2.32,2.84-4.21S32.18,9.37,35.34,8.11c3.16-1.26,4.21-1.79,6,1.89
		s8.42,13.47,9.47,15.26c1.05,1.79,3.68,9.89,0.84,11.79c-2.84,1.89-9.26,3.05-10.63,2.95s2.21-1.79,2.63-3.16
		c0.42-1.37-0.21-4.32-2.53-6.84s-6.99-7.68-9.07-9.05c-2.09-1.37-3.77-0.21-5.03,2.21c-1.26,2.42-3.26,4.32-0.11,8.74
		S41.23,53.26,44.7,57.68c3.47,4.42,7.51,10.53,8.23,12.53c0.72,2-0.54,3.89-3.07,6.63S32.28,93.26,29.55,94.63
		c-2.74,1.37-3.68,0.63-5.68-2.11c-2-2.74-10.21-14-10.95-18.74c-0.74-4.74-1.05-8.84,3.26-11.05c4.32-2.21,8.84-2.39,8.53-1.67
		c-0.32,0.72-2.95,1.56-3.58,3.35c-0.63,1.79-0.53,3.79,1.37,7.37C24.39,75.37,29.94,85.85,31.76,83.68z"/>
	<path class="st0" d="M56.49,50.42h-6.95c0,0,5.68-3.68,8-6.53c2.32-2.84,7.16-8.74,7.16-8.74v11.79c0,0,5.47-0.42,5.68,3.47h-5.37
		c0,0-1.05,37.47-0.63,39.37c0.42,1.89-1.16,2.11,3.68,6.11c0,0-8.53-1.89-10.21-3.68c-1.68-1.79-1.58-3.05-1.58-7.79
		S56.49,50.42,56.49,50.42z"/>
	<path class="st0" d="M77.44,69.05c0-4.21,0.42-8.32-1.47-9.58c-1.89-1.26-5.58-3.37-5.58-3.37s-0.42,12.84-0.42,17.16
		s-0.32,13.05,0.42,13.68c0.74,0.63,4.84,7.79,5.89,7.79s5.79-4.74,6.32-5.47s2.95-3.37,2.95-3.37v8.32l10.74-0.11
		c0,0-4.63-2.11-4.63-4.95s0-26.84,0-29.05s0.84-3.79,2.53-4c1.68-0.21-0.11-0.84-1.89-0.84c-1.79,0-8.38,0-9.19,0
		s1.72,0.84,1.72,3.68c0,2.84,1.16,22.74,0.74,23.16s-2.63,4.53-4.53,4.63c-1.89,0.11-2.63,0.32-2.95-1.58
		C77.76,83.26,77.44,73.68,77.44,69.05z"/>
	<path class="st0" d="M125.12,59.26c-0.74-1.68-9.05-13.47-9.89-13.79c-0.84-0.32-6.95,3.79-6.95,3.79v-4.85
		c0,0-7.16,0.11-10.11,0.01c-2.95-0.11-2,0.74-1.89,2.42s5.37,32.11,4.84,32.11s-4.63-2.42-4.84-1.68
		c-0.21,0.74,8.84,38.42,8.84,38.42c0.74-0.32,0.53-23.26,1.05-22.84c0.53,0.42,3.47,6.63,4.09,5.47s-1.25-17.16-0.62-17.16
		c0.63,0,5.58,6.42,6,6.63c0.42,0.21,8.53-4.95,8.63-6C124.39,80.74,125.86,60.95,125.12,59.26z M116.81,78.21
		c-0.32,1.58-1.94,3.37-2.55,3.37s-4.82-2.95-4.82-2.95c-0.42-0.11-1.16-24.21-0.95-24.74c0.21-0.53,6.02-3.58,6.02-3.58
		S117.12,76.63,116.81,78.21z"/>
	<path class="st0" d="M150.28,90.21c0.53,0,6.11-3.16,6.11-4.32c0-1.16,0-27.37,0-27.37s-4.63-1.05-6.11-4.95s-2-12.11-1.26-12
		s6.53,1.26,6.32,1.68c-0.21,0.42-2.53,1.47-3.37,1.68s-1.16,7.47,4.42,9.26V34l-2.42-0.53c0,0,10.21-8.74,10.21-8s0,5.05,0,5.05
		s13.79-9.47,14.32-9.16c0.53,0.32,6.84,9.79,6.63,11.16c-0.21,1.37-8.63,6.95-9.05,6.95s-0.63-0.84,0.74-1.89
		c1.37-1.05-1.26-10.11-1.58-10c-0.32,0.11-11.37,9.05-11.37,9.79c0,0.74,0,17.68,0,17.68s9.89-6.95,10.53-7.26
		c0.63-0.32,2.53-1.26,2.63-0.84c0.11,0.42,0.32,2.32-0.11,2.74c-0.42,0.42-1.89,0.21-2.32,0.74c-0.42,0.53-8.42,8-10.74,8
		c0,0,0.95,28.63,1.26,29.68c0.32,1.05,2.63,3.79,7.89,5.16c0,0-5.26,1.26-10-0.63C158.28,90.74,150.28,90.21,150.28,90.21z"/>
	<path class="st0" d="M159.86,96.53c-1.58,0-8.42,0.74-9.37,1.47c-0.95,0.74-5.16,5.68-4.21,6.21c0.95,0.53,6,3.68,11.58,4.11
		c5.58,0.42,17.68,0.32,18.53,0c0.84-0.32,8.53-14.63,10.63-18.84S200.7,56.53,200.07,56c-0.63-0.53-10.84-0.32-11.37,0
		c-0.53,0.32,2.84,0.11,2.63,2s-5.79,19.26-7.05,18.21c-1.26-1.05-4.42-11.47-4.11-12.53c0.32-1.05,2.11-2.31,1.26-2.37
		s-13.47,0.89-14.11,1.1c-0.63,0.21,3.16,1.26,4.53,5.05c1.37,3.79,8,16.63,6.53,20.42s-5.05,14.74-5.89,14.95
		s-19.68,0.53-19.68,0.53s0.11-2.95,2.42-3.89C157.55,98.53,159.86,96.53,159.86,96.53z"/>
	<path class="st0" d="M205.23,92.53c1.34,0.28,2.84,1.35,3.58,0.41s1.79-7.47,0.53-8.62c-1.26-1.16-4-2.67-4.84-2.18
		s-5.21,4.81-4.4,7.55c0.82,2.74,1.13,3.63,2.61,3.6C204.18,93.26,204.51,92.38,205.23,92.53z"/>
	<path class="st0" d="M207.97,77.47c0.32-0.11,4.53-15.37,4.63-17.26c0.11-1.89,0.95-25.16,1.37-26.53s1.89-3.79,2.95-3.89
		c0,0-13.26-1.26-13.89-0.84c-0.63,0.42,1.79,2.42,1.79,4c0,1.58-1.79,44.21-1.16,44.53S207.97,77.47,207.97,77.47z"/>
	<path class="st0" d="M149.76,61.07c-0.32-0.72-8.21-6.12-9.05-6.02c-0.84,0.11-11.58,8.53-11.68,9.16
		c-0.11,0.63-0.52,16.95-0.53,19.37c0,1.47,3.05,4.11,4.84,5.58s4.32,4.32,5.05,4.32c0.74,0,3.79,0.11,4.53,0
		c0.74-0.11,2.63-3.47,3.68-4.74c1.05-1.26,2.11-3.58,1.68-4.33c-0.42-0.75-2.84-3.46-3.68-3.98s-0.21,5.68-0.21,6.53
		s-2.39,3.79-3.16,3.79c-1.05,0-2.63-1.89-2.95-2.42c-0.32-0.53-0.11-15.47,0.21-15.68c0.32-0.21,5.68-0.32,6.63-0.32
		c0.95,0,3.68,2,4.21,1.97c0.53-0.03,2.63-4.5,2.63-5.13S150.07,61.79,149.76,61.07z M144.39,69.79c-0.58-0.26-2.16-0.26-3-0.37
		c-0.85-0.11-3.26,0.21-3.58,0c-0.32-0.21,1-8.63,1-9.74c0-1.11,0.68-0.84,1.42-0.68s3.79,7.84,4.37,9.16
		C145.18,69.47,145.13,70.13,144.39,69.79z"/>
</g>
</svg>
